HIERARCHY
ROOT Hips
{
     OFFSET 0.09481 97.43950 -28.68070
     CHANNELS 6 Xposition Yposition Zposition Zrotation Xrotation Yrotation
     JOINT Spine
     {
          OFFSET -0.00000 11.89050 -0.00000
          CHANNELS 3 Zrotation Xrotation Yrotation
          JOINT Spine1
          {
               OFFSET 0.00000 25.65740 0.12766
               CHANNELS 3 Zrotation Xrotation Yrotation
               JOINT HEad
               {
                    OFFSET 0.00000 8.73416 0.01134
                    CHANNELS 3 Zrotation Xrotation Yrotation
                    End Site
                    {
                         OFFSET -0.29000 12.77420 2.51395
                    }
               }
               JOINT LeftShoulder1
               {
                    OFFSET 8.99000 -0.36225 -0.22000
                    CHANNELS 3 Zrotation Xrotation Yrotation
                    JOINT LeftArm
                    {
                         OFFSET 10.28270 -0.00338 0.32212
                         CHANNELS 3 Zrotation Xrotation Yrotation
                         JOINT LeftForeArm
                         {
                              OFFSET 32.76690 0.09914 -1.42434
                              CHANNELS 3 Zrotation Xrotation Yrotation
                              JOINT LeftHand
                              {
                                   OFFSET 27.56430 0.08536 1.02216
                                   CHANNELS 3 Zrotation Xrotation Yrotation
                                   End Site
                                   {
                                        OFFSET 16.74430 -0.60000 1.50291
                                   }
                              }
                         }
                    }
               }
               JOINT RightShoulder
               {
                    OFFSET -8.99000 -0.36225 -0.22000
                    CHANNELS 3 Zrotation Xrotation Yrotation
                    JOINT RightArm
                    {
                         OFFSET -10.28270 -0.00338 0.32212
                         CHANNELS 3 Zrotation Xrotation Yrotation
                         JOINT RightForeArm
                         {
                              OFFSET -32.89710 0.09914 -1.42434
                              CHANNELS 3 Zrotation Xrotation Yrotation
                              JOINT RightHand
                              {
                                   OFFSET -27.49210 0.08536 1.02216
                                   CHANNELS 3 Zrotation Xrotation Yrotation
                                   End Site
                                   {
                                        OFFSET -16.63120 -0.60000 1.50291
                                   }
                              }
                         }
                    }
               }
          }
     }
     JOINT LeftUpLeg
     {
          OFFSET 8.94580 -8.66707 0.10165
          CHANNELS 3 Zrotation Xrotation Yrotation
          JOINT LeftLeg
          {
               OFFSET 0.00000 -44.42270 1.37270
               CHANNELS 3 Zrotation Xrotation Yrotation
               JOINT LeftFoot
               {
                    OFFSET -0.25355 -42.09240 -1.46059
                    CHANNELS 3 Zrotation Xrotation Yrotation
                    JOINT LeftToes
                    {
                         OFFSET -0.04000 -4.41509 8.49910
                         CHANNELS 3 Zrotation Xrotation Yrotation
                         End Site
                         {
                              OFFSET 0.08000 -0.04745 9.77979
                         }
                    }
               }
          }
     }
     JOINT RightUpLeg
     {
          OFFSET -8.94580 -8.66707 0.10165
          CHANNELS 3 Zrotation Xrotation Yrotation
          JOINT RightLeg
          {
               OFFSET -0.00000 -44.42270 1.37270
               CHANNELS 3 Zrotation Xrotation Yrotation
               JOINT RightFoot
               {
                    OFFSET 0.25355 -42.09240 -1.46059
                    CHANNELS 3 Zrotation Xrotation Yrotation
                    JOINT RightToes
                    {
                         OFFSET 0.04000 -4.41509 8.49910
                         CHANNELS 3 Zrotation Xrotation Yrotation
                         End Site
                         {
                              OFFSET -0.08000 -0.13745 9.77979
                         }
                    }
               }
          }
     }
}
MOTION
Frames: 16
Frame Time: 0.01667
0.09481 97.43950 -28.68070 -0.56148 0.92169 -38.42160 3.26554 4.45353 2.58215 1.97554 9.20235 5.23181 -8.83319 -1.49975 37.31760 -0.00000 -0.00000 0.00000 -81.12460 -44.26910 -96.39770 -11.30290 13.86940 -71.74660 5.55594 9.67997 -0.87718 18.46930 1.61799 5.32198 49.97930 -16.42440 84.41180 12.94090 25.69910 86.19690 -5.55712 9.68432 0.87760 17.97980 -14.48230 7.41232 -1.35110 22.18720 7.93157 -10.86270 0.34305 0.74342 0.78806 -19.81620 -4.32449 -8.57948 -2.42822 -4.56023 -6.24211 20.67730 15.93620 6.62086 -21.25940 0.54661 0.78648 1.53050 1.51367 
0.19349 97.46360 -28.77070 -0.66753 0.90094 -38.88400 3.37031 4.45783 2.65182 2.19818 9.20801 5.36617 -8.91687 -1.05696 37.48040 -0.00000 -0.00000 0.00000 -79.45660 -44.72040 -96.13920 -10.72300 12.37160 -71.08100 5.55594 9.67997 -0.87718 16.83210 1.42397 4.86598 47.97610 -15.15640 86.84320 10.90870 21.13220 84.81990 -5.55712 9.68432 0.87760 18.23200 -14.21660 7.48650 -1.66461 22.01170 8.29253 -10.69480 0.51449 0.74653 0.77310 -19.35190 -3.98244 -8.48215 -2.59383 -4.33374 -6.35983 20.74720 16.24360 6.79311 -21.30400 0.57022 1.08349 1.92935 1.48604 
0.27909 97.50520 -28.80940 -0.76777 0.90719 -39.19580 3.45243 4.43328 2.71823 2.41593 9.15539 5.49078 -8.99998 -0.53387 37.56990 -0.00000 -0.00000 0.00000 -78.41120 -45.00290 -96.10500 -10.33300 11.30150 -70.56590 5.55594 9.67997 -0.87718 15.28240 1.24895 4.40984 46.31630 -14.34900 89.08880 9.18054 17.09390 83.42590 -5.55712 9.68432 0.87760 18.46870 -13.99430 7.71134 -1.94304 21.86320 8.32830 -10.49980 0.41113 0.72368 0.74655 -18.60630 -3.48967 -8.40133 -2.64815 -4.16000 -6.43065 20.70250 16.48120 7.19402 -21.55360 0.63441 1.67377 2.72706 1.43546 
0.34841 97.55650 -28.79440 -0.82562 0.93494 -39.29430 3.52198 4.37598 2.75939 2.61337 9.03931 5.56202 -9.09042 -0.04542 37.60860 -0.00000 -0.00000 0.00000 -78.11380 -45.10330 -96.37900 -10.14200 10.71390 -70.25750 5.55594 9.67997 -0.87718 13.90060 1.10094 3.98456 44.99720 -13.93910 91.05280 7.75534 13.70050 82.12040 -5.55712 9.68432 0.87760 18.63410 -13.85030 7.99456 -2.18816 21.69930 8.12408 -10.12220 0.23958 0.68280 0.71123 -17.93270 -2.96586 -8.36102 -2.59166 -4.12949 -6.48612 20.53580 16.66470 7.72912 -21.96450 0.72806 2.48089 3.78383 1.30688 
0.40372 97.60930 -28.72880 -0.81218 0.97322 -39.18590 3.57394 4.28682 2.77270 2.75994 8.86188 5.57602 -9.16536 0.33880 37.59730 -0.00000 -0.00000 0.00000 -78.52600 -45.02190 -96.96410 -10.12790 10.58470 -70.16720 5.55594 9.67997 -0.87718 12.73170 0.98249 3.61365 43.92580 -13.81910 92.71030 6.58808 10.89290 80.92310 -5.55712 9.68432 0.87760 18.68760 -13.79320 8.26473 -2.39907 21.48720 7.80658 -9.48677 0.20834 0.63629 0.68184 -17.67810 -2.57042 -8.40324 -2.45131 -4.17202 -6.46462 20.26840 16.68170 8.19262 -22.33040 0.81324 3.22755 4.71728 1.11833 
0.45141 97.65760 -28.61880 -0.71430 1.01307 -38.91940 3.59882 4.17163 2.76813 2.82916 8.63389 5.55437 -9.19635 0.60583 37.53750 -0.00000 -0.00000 0.00000 -79.43860 -44.78140 -97.75940 -10.24000 10.79310 -70.24170 5.55594 9.67997 -0.87718 11.79900 0.89241 3.30902 42.97630 -13.91280 94.07980 5.61383 8.53391 79.81150 -5.55712 9.68432 0.87760 18.61320 -13.82140 8.47534 -2.57193 21.23700 7.47991 -8.68747 0.37213 0.59245 0.67113 -17.89690 -2.40049 -8.56038 -2.27055 -4.18263 -6.30142 19.94770 16.44090 8.42644 -22.48580 0.85535 3.68720 5.24688 0.93670 
0.49547 97.69950 -28.47470 -0.54457 1.04116 -38.55500 3.58883 4.04333 2.75773 2.81586 8.37972 5.52272 -9.16565 0.76691 37.45530 -0.00000 -0.00000 0.00000 -80.54260 -44.42790 -98.60480 -10.40590 11.15090 -70.39110 5.55594 9.67997 -0.87718 11.09270 0.82633 3.06902 42.04230 -14.17350 95.19210 4.76157 6.47152 78.75030 -5.55712 9.68432 0.87760 18.42240 -13.91260 8.59576 -2.70791 20.98450 7.20072 -7.91447 0.63534 0.55452 0.67773 -18.35620 -2.44702 -8.82748 -2.07581 -4.11322 -6.00403 19.62040 15.96120 8.42301 -22.41560 0.84989 3.82755 5.35752 0.80765 
0.53304 97.73670 -28.31440 -0.35129 1.03562 -38.15110 3.54401 3.92223 2.75125 2.74304 8.13822 5.50215 -9.06929 0.86816 37.36300 -0.00000 -0.00000 0.00000 -81.54860 -44.02400 -99.35110 -10.55550 11.48390 -70.53680 5.55594 9.67997 -0.87718 10.56370 0.77740 2.87858 41.06960 -14.54390 96.07580 3.96432 4.56843 77.69740 -5.55712 9.68432 0.87760 18.16200 -14.00700 8.62870 -2.81334 20.75410 6.97564 -7.32429 0.88616 0.52607 0.69367 -18.80040 -2.65086 -9.15129 -1.85112 -3.93032 -5.62914 19.31200 15.30330 8.28618 -22.22300 0.81814 3.77937 5.22598 0.71584 
0.55887 97.77030 -28.15610 -0.19592 0.97675 -37.74630 3.47674 3.82599 2.75199 2.64909 7.94394 5.50073 -8.92156 1.00323 37.21840 -0.00000 -0.00000 0.00000 -82.25340 -43.63840 -99.88950 -10.64270 11.68580 -70.63090 5.55594 9.67997 -0.87718 10.14690 0.73889 2.71920 40.06210 -14.94360 96.75880 3.17294 2.72454 76.61110 -5.55712 9.68432 0.87760 17.89430 -14.04410 8.61441 -2.89202 20.56470 6.76046 -6.98275 1.05747 0.50986 0.71226 -19.09130 -2.93549 -9.45726 -1.56187 -3.61467 -5.24989 19.03860 14.53620 8.16649 -22.07730 0.79236 3.75821 5.11787 0.60182 
0.57027 97.79700 -28.00830 -0.10449 0.86019 -37.34810 3.40083 3.75705 2.75638 2.55929 7.80214 5.51120 -8.76426 1.25839 36.96070 -0.00000 -0.00000 0.00000 -82.56390 -43.32430 -100.16300 -10.65430 11.73160 -70.65380 5.55594 9.67997 -0.87718 9.79142 0.70641 2.57881 39.10090 -15.30420 97.26860 2.38348 0.93064 75.48670 -5.55712 9.68432 0.87760 17.65120 -14.01480 8.59054 -2.94684 20.44590 6.48852 -6.85474 1.08935 0.50180 0.72672 -19.13840 -3.17679 -9.70504 -1.20245 -3.23225 -4.93531 18.81940 13.76280 8.16808 -22.09410 0.79372 3.89201 5.19619 0.44026 
0.56545 97.81320 -27.86850 -0.05700 0.69896 -36.94870 3.32008 3.70389 2.76097 2.47595 7.69032 5.52498 -8.65448 1.64121 36.58270 -0.00000 -0.00000 0.00000 -82.52200 -43.10050 -100.18800 -10.61460 11.67940 -70.61940 5.55594 9.67997 -0.87718 9.46644 0.67740 2.44961 38.34940 -15.59730 97.62700 1.65061 -0.69972 74.40020 -5.55712 9.68432 0.87760 17.42790 -13.95220 8.56786 -2.99136 20.41850 6.12130 -6.81862 0.92849 0.49048 0.72991 -18.86670 -3.23067 -9.91111 -0.80326 -2.89232 -4.70079 18.66550 13.06730 8.27256 -22.23590 0.81725 4.10863 5.39286 0.28195 
0.54176 97.81810 -27.72930 -0.02580 0.52073 -36.54680 3.23565 3.65233 2.76748 2.39556 7.58065 5.54365 -8.60951 2.06968 36.15500 -0.00000 -0.00000 0.00000 -82.27530 -42.95080 -100.04200 -10.57120 11.63190 -70.57120 5.55594 9.67997 -0.87718 9.16614 0.65108 2.32871 37.97910 -15.82710 97.85230 1.05942 -1.99338 73.48930 -5.55712 9.68432 0.87760 17.22800 -13.89210 8.54659 -3.05743 20.48130 5.67296 -6.73432 0.57229 0.46544 0.71615 -18.28140 -3.02635 -10.10880 -0.40262 -2.63242 -4.49596 18.57470 12.45010 8.42288 -22.41710 0.84998 4.28857 5.58812 0.19751 
0.49912 97.81280 -27.58560 -0.00070 0.35923 -36.14230 3.15548 3.59208 2.77795 2.32102 7.45372 5.57007 -8.56170 2.43053 35.78530 -0.00000 -0.00000 0.00000 -81.98520 -42.84200 -99.82290 -10.56310 11.66680 -70.55660 5.55594 9.67997 -0.87718 8.92003 0.62954 2.22587 38.07200 -16.01390 97.96330 0.68357 -2.81377 72.88150 -5.55712 9.68432 0.87760 17.07720 -13.86370 8.52538 -3.17557 20.62280 5.19354 -6.53781 0.08506 0.42653 0.68471 -17.50270 -2.62336 -10.30760 -0.02743 -2.42965 -4.26722 18.53720 11.87150 8.63374 -22.63380 0.89401 4.42688 5.79560 0.21531 
0.44200 97.79930 -27.43830 0.01778 0.23646 -35.72560 3.08922 3.51779 2.78667 2.25814 7.30020 5.59213 -8.40191 2.65542 35.55790 -0.00000 -0.00000 0.00000 -81.76210 -42.75020 -99.59850 -10.60430 11.81130 -70.60400 5.55594 9.67997 -0.87718 8.78012 0.61698 2.16321 38.58540 -16.17780 97.97700 0.55678 -3.11270 72.63390 -5.55712 9.68432 0.87760 16.98540 -13.88590 8.49922 -3.33486 20.81950 4.72792 -6.27398 -0.42296 0.38398 0.64431 -16.72860 -2.17968 -10.49790 0.31719 -2.27060 -3.99617 18.52850 11.30400 8.92295 -22.89780 0.95332 4.55750 6.05400 0.32057 
0.37440 97.78130 -27.29240 0.02635 0.15327 -35.28720 3.03879 3.43056 2.78325 2.21025 7.12265 5.58856 -8.08792 2.75290 35.48290 -0.00000 -0.00000 0.00000 -81.66800 -42.66860 -99.40160 -10.69480 12.06940 -70.72100 5.55594 9.67997 -0.87718 8.79445 0.61740 2.16255 39.37210 -16.33180 97.90710 0.65911 -2.93986 72.71830 -5.55712 9.68432 0.87760 16.93140 -13.95440 8.47408 -3.47438 21.03570 4.27822 -6.04906 -0.85507 0.34958 0.60982 -16.12420 -1.84878 -10.66670 0.64853 -2.13780 -3.68124 18.51160 10.71620 9.21943 -23.15850 1.01485 4.66178 6.30823 0.47113 
0.29623 97.76270 -27.15200 0.02404 0.09678 -34.83640 2.99599 3.33744 2.76631 2.17231 6.93435 5.55667 -7.69459 2.78967 35.48380 -0.00000 -0.00000 0.00000 -81.71660 -42.58700 -99.24020 -10.82960 12.43170 -70.89610 5.55594 9.67997 -0.87718 8.98555 0.63214 2.22809 40.24730 -16.49280 97.75980 0.93273 -2.40681 73.05330 -5.55712 9.68432 0.87760 16.88840 -14.04300 8.47005 -3.53995 21.23910 3.81835 -5.94164 -1.18495 0.32811 0.58996 -15.71850 -1.68526 -10.80110 0.98490 -1.99153 -3.33616 18.45870 10.07560 9.40925 -23.33650 1.05592 4.68706 6.45323 0.62466 
